#!OML:ASF X:\für Bonn\!DataBase\2005_08_12_Daniel\c3d\Daniel.ASF
:FULLY-SPECIFIED
:DEGREES
114
root 11.8313 5.99604 -1.14241 -727.857 -70.1326 -45.6867
lowerback 77.1311 5.41492 -0.384123
upperback 14.0935 -1.08835 -7.45626
thorax -5.00711 -1.8339 -7.95526
lowerneck 4.61654 1.20918 -9.81766
upperneck 8.98714 1.00185 2.57012
head 2.0242 0.155762 2.5449
rclavicle -1.27222e-014 1.08139e-013
rhumerus -20.818 10.1144 -86.2299
rradius 26.8645
rwrist 18.6897
rhand -11.51 -345.286
rfingers 7.12502
rthumb 14.5292 -374.757
lclavicle -1.27222e-014 1.08139e-013
lhumerus -397.936 61.949 -332.476
lradius 16.5065
lwrist -58.3994
lhand -44.7399 345.863
lfingers 7.12502
lthumb -17.5334 375.092
rfemur 183.209 26.5133 86.4308
rtibia 210.275
rfoot 149.917 106.351
rtoes 29.1413
lfemur -71.0498 51.6619 16.5053
ltibia 146.532
lfoot -26.6009 -44.0196
ltoes -1.05789
115
root 11.8445 5.9353 -1.11409 -726.67 -70.25 -47.5956
lowerback 77.0429 5.46971 -0.307308
upperback 14.102 -1.00504 -7.48103
thorax -5.00111 -1.8125 -8.0458
lowerneck 4.36989 1.17617 -9.76766
upperneck 9.263 0.984104 2.56356
head 2.16083 0.139717 2.53915
rclavicle -7.63333e-014 1.90833e-014
rhumerus -21.0659 9.85747 -86.5652
rradius 26.4438
rwrist 19.4736
rhand -11.2419 -345.496
rfingers 7.12502
rthumb 14.7875 -374.949
lclavicle -7.63333e-014 1.90833e-014
lhumerus -400.104 62.1428 -334.567
lradius 16.4095
lwrist -59.1658
lhand -46.3644 344.722
lfingers 7.12502
lthumb -19.0962 373.804
rfemur 183.672 26.273 86.7392
rtibia 210.142
rfoot 150.024 106.583
rtoes 29.2192
lfemur -70.4541 52.7795 18.1342
ltibia 146.938
lfoot -26.8879 -44.4881
ltoes -0.893593
116
root 11.8597 5.87984 -1.08612 -725.327 -70.3392 -49.681
lowerback 76.9563 5.51355 -0.226673
upperback 14.1178 -0.930535 -7.48959
thorax -4.98601 -1.79876 -8.11484
lowerneck 3.95103 1.14262 -9.76315
upperneck 9.59002 0.98369 2.56725
head 2.34519 0.130609 2.54818
rclavicle -2.8625e-014 -8.26944e-014
rhumerus -21.3004 9.54424 -86.8701
rradius 26.0777
rwrist 20.3537
rhand -10.9251 -345.68
rfingers 7.12502
rthumb 15.0927 -375.11
lclavicle -2.8625e-014 -8.26944e-014
lhumerus -402.217 62.2538 -336.561
lradius 16.3501
lwrist -59.6055
lhand -48.198 343.312
lfingers 7.12502
lthumb -20.8587 372.21
rfemur 184.128 26.0369 87.3661
rtibia 210.026
rfoot 150.004 106.644
rtoes 29.2242
lfemur -69.8602 53.742 19.7256
ltibia 147.307
lfoot -27.1359 -44.7174
ltoes -0.85893
117
root 11.8745 5.82657 -1.05849 -723.835 -70.4248 -51.898
lowerback 76.8196 5.55572 -0.132371
upperback 14.117 -0.839787 -7.50836
thorax -4.99523 -1.77396 -8.20658
lowerneck 3.56745 1.12572 -9.72916
upperneck 9.92178 1.001 2.57175
head 2.52475 0.13058 2.55221
rclavicle -6.04305e-014 -6.04305e-014
rhumerus -21.6153 9.05934 -87.1733
rradius 25.7602
rwrist 21.3708
rhand -10.6258 -345.873
rfingers 7.12502
rthumb 15.3809 -375.281
lclavicle -6.04305e-014 -6.04305e-014
lhumerus -403.865 61.9742 -338.039
lradius 16.288
lwrist -59.4895
lhand -50.2788 341.757
lfingers 7.12502
lthumb -22.8567 370.422
rfemur 184.6 25.8317 88.2234
rtibia 209.931
rfoot 149.383 106.713
rtoes 29.215
lfemur -69.0651 54.8864 21.5356
ltibia 147.672
lfoot -27.4162 -44.9051
ltoes -0.641421
118
root 11.8875 5.77798 -1.03105 -722.274 -70.4642 -54.1824
lowerback 76.5624 5.56952 -0.0298753
upperback 14.1888 -0.764173 -7.53382
thorax -4.93559 -1.75645 -8.30057
lowerneck 3.23511 1.14211 -9.76672
upperneck 10.1846 1.04939 2.67074
head 2.6711 0.14772 2.60109
rclavicle 3.18055e-015 4.45278e-014
rhumerus -21.9558 8.67872 -87.4982
rradius 25.5739
rwrist 22.2791
rhand -10.3243 -346.093
rfingers 7.12502
rthumb 15.6713 -375.478
lclavicle 3.18055e-015 4.45278e-014
lhumerus -405.307 61.5851 -339.292
lradius 16.2601
lwrist -59.1172
lhand -52.4326 339.905
lfingers 7.12502
lthumb -24.9221 368.3
rfemur 185.027 25.6025 89.2005
rtibia 209.857
rfoot 149.079 106.679
rtoes 29.1525
lfemur -68.126 56.1313 23.4035
ltibia 148.047
lfoot -27.9985 -44.8053
ltoes -0.454739
119
root 11.8989 5.73266 -1.00455 -720.739 -70.4778 -56.4461
lowerback 76.2754 5.5936 0.0391143
upperback 14.2299 -0.687582 -7.53194
thorax -4.91173 -1.74041 -8.34802
lowerneck 3.11842 1.19621 -9.90371
upperneck 10.3345 1.11947 2.8029
head 2.73932 0.174614 2.67615
rclavicle -9.54166e-015 9.54166e-014
rhumerus -22.3759 8.22069 -87.7643
rradius 25.3941
rwrist 23.2553
rhand -10.0063 -346.272
rfingers 7.12502
rthumb 15.9776 -375.633
lclavicle -9.54166e-015 9.54166e-014
lhumerus -406.692 61.042 -340.409
lradius 16.2377
lwrist -58.5549
lhand -54.6636 337.667
lfingers 7.12502
lthumb -27.0583 365.749
rfemur 185.266 25.2742 89.9121
rtibia 209.824
rfoot 149.484 106.611
rtoes 29.0394
lfemur -66.8674 57.586 25.4928
ltibia 148.434
lfoot -28.7261 -44.4562
ltoes -0.176602
120
root 11.9075 5.68994 -0.978732 -719.218 -70.4297 -58.6872
lowerback 75.8939 5.58527 0.117045
upperback 14.2998 -0.623654 -7.53251
thorax -4.86608 -1.72726 -8.39444
lowerneck 3.19775 1.23598 -10.0087
upperneck 10.3306 1.15233 2.89769
head 2.72164 0.187409 2.72747
rclavicle 3.18055e-014 -1.17681e-013
rhumerus -22.8613 7.83361 -88.0417
rradius 25.2804
rwrist 24.1246
rhand -9.69734 -346.415
rfingers 7.12502
rthumb 16.2751 -375.752
lclavicle 3.18055e-014 -1.17681e-013
lhumerus -407.746 60.2635 -341.138
lradius 16.2503
lwrist -57.6841
lhand -56.8315 335.25
lfingers 7.12502
lthumb -29.1306 362.991
rfemur 185.316 24.8618 90.3021
rtibia 209.822
rfoot 150.419 106.598
rtoes 29.0001
lfemur -65.357 59.2467 27.737
ltibia 148.872
lfoot -29.7262 -43.6219
ltoes -0.0945829
121
root 11.9145 5.64951 -0.954563 -717.801 -70.3599 -60.806
lowerback 75.4716 5.59979 0.136781
upperback 14.3395 -0.561016 -7.50442
thorax -4.85598 -1.71694 -8.38184
lowerneck 3.42271 1.30809 -10.2589
upperneck 10.2618 1.20486 3.04682
head 2.6545 0.206418 2.82198
rclavicle -7.31528e-014 -7.95139e-014
rhumerus -23.4268 7.66565 -88.3066
rradius 25.2314
rwrist 24.714
rhand -9.39443 -346.57
rfingers 7.12502
rthumb 16.5667 -375.883
lclavicle -7.31528e-014 -7.95139e-014
lhumerus -408.498 59.0611 -341.338
lradius 16.3753
lwrist -56.4454
lhand -58.9622 332.709
lfingers 7.12502
lthumb -31.1634 360.079
rfemur 185.199 24.3727 90.2841
rtibia 209.842
rfoot 151.985 106.636
rtoes 29.0074
lfemur -63.228 61.2089 30.3794
ltibia 149.361
lfoot -31.2835 -42.0796
ltoes -0.444048
122
root 11.9188 5.61012 -0.932563 -716.487 -70.2531 -62.8208
lowerback 74.9991 5.6385 0.132032
upperback 14.3863 -0.473055 -7.43548
thorax -4.83467 -1.69834 -8.32107
lowerneck 3.72022 1.37063 -10.5999
upperneck 10.1235 1.23098 3.25016
head 2.55285 0.212393 2.95064
rclavicle 1.74931e-014 -2.22639e-014
rhumerus -24.0593 7.87506 -88.5677
rradius 25.2326
rwrist 24.8396
rhand -9.22451 -346.705
rfingers 7.12502
rthumb 16.7303 -376.004
lclavicle 1.74931e-014 -2.22639e-014
lhumerus -408.624 57.4001 -340.695
lradius 16.5867
lwrist -54.6591
lhand -60.8978 329.966
lfingers 7.12502
lthumb -33.0061 356.964
rfemur 185.007 23.8162 90.0263
rtibia 209.866
rfoot 153.938 106.718
rtoes 28.9926
lfemur -60.2055 63.4929 33.7297
ltibia 149.897
lfoot -32.737 -39.945
ltoes -0.692363
123
root 11.9227 5.57256 -0.912814 -715.129 -70.0858 -64.842
lowerback 74.4432 5.67189 0.118879
upperback 14.4573 -0.374936 -7.31869
thorax -4.7878 -1.67857 -8.20328
lowerneck 3.876 1.4412 -11.0485
upperneck 10.0711 1.28033 3.46277
head 2.50474 0.223954 3.10692
rclavicle 3.81667e-014 9.85972e-014
rhumerus -24.7184 8.5952 -88.881
rradius 25.3234
rwrist 24.4546
rhand -9.12614 -346.894
rfingers 7.12502
rthumb 16.825 -376.185
lclavicle 3.81667e-014 9.85972e-014
lhumerus -408.045 55.0681 -338.97
lradius 17.0065
lwrist -52.0065
lhand -62.6256 327.151
lfingers 7.12502
lthumb -34.6477 353.789
rfemur 184.723 23.3039 89.7448
rtibia 209.913
rfoot 155.263 106.892
rtoes 28.9992
lfemur -56.6732 65.7448 37.3969
ltibia 150.421
lfoot -33.6106 -37.3348
ltoes -0.585128
124
root 11.9263 5.53807 -0.895371 -713.854 -69.8639 -66.8048
lowerback 73.9005 5.66965 0.112785
upperback 14.5326 -0.309252 -7.20323
thorax -4.7376 -1.67233 -8.07722
lowerneck 3.97162 1.52607 -11.5152
upperneck 10.0246 1.3546 3.68213
head 2.46708 0.247649 3.27095
rclavicle 1.90833e-014 3.18055e-015
rhumerus -25.3443 9.49732 -89.2559
rradius 25.3896
rwrist 23.8019
rhand -9.15298 -347.099
rfingers 7.12502
rthumb 16.7992 -376.392
lclavicle 1.90833e-014 3.18055e-015
lhumerus -408.073 53.2193 -337.984
lradius 17.3862
lwrist -50.0067
lhand -64.1891 324.328
lfingers 7.12502
lthumb -36.1301 350.612
rfemur 184.4 22.7644 89.4977
rtibia 209.997
rfoot 155.76 107.063
rtoes 29.0326
lfemur -53.055 67.5994 40.8247
ltibia 150.854
lfoot -33.982 -34.4127
ltoes -0.404545
125
root 11.9296 5.50613 -0.880342 -712.584 -69.5912 -68.7523
lowerback 73.3657 5.63758 0.118333
upperback 14.5772 -0.263534 -7.10246
thorax -4.72466 -1.6696 -7.96513
lowerneck 4.03802 1.623 -11.9257
upperneck 10.0568 1.44682 3.90646
head 2.45905 0.279082 3.42847
rclavicle 3.65764e-014 2.22639e-014
rhumerus -25.9974 10.3123 -89.6834
rradius 25.4138
rwrist 23.2315
rhand -9.23746 -347.236
rfingers 7.12502
rthumb 16.7178 -376.536
lclavicle 3.65764e-014 2.22639e-014
lhumerus -409.392 52.6659 -338.815
lradius 17.512
lwrist -49.7172
lhand -65.5778 320.908
lfingers 7.12502
lthumb -37.444 346.856
rfemur 184.024 22.2642 89.303
rtibia 210.083
rfoot 156.187 107.198
rtoes 28.8726
lfemur -50.2113 68.9211 43.176
ltibia 151.126
lfoot -33.6701 -31.4801
ltoes 0.174646
126
root 11.9339 5.4769 -0.865562 -711.309 -69.262 -70.6935
lowerback 72.8142 5.57402 0.15638
upperback 14.6396 -0.224553 -6.99491
thorax -4.69191 -1.6681 -7.85598
lowerneck 4.06218 1.72773 -12.2159
upperneck 10.1103 1.5623 4.04495
head 2.46305 0.323799 3.53391
rclavicle 3.81667e-014 1.55847e-013
rhumerus -26.6441 11.017 -90.1201
rradius 25.4586
rwrist 22.7109
rhand -9.45182 -347.313
rfingers 7.12502
rthumb 16.5115 -376.631
lclavicle 3.81667e-014 1.55847e-013
lhumerus -410.69 52.2805 -339.738
lradius 17.5556
lwrist -49.6845
lhand -66.8436 317.315
lfingers 7.12502
lthumb -38.6393 342.937
rfemur 183.658 21.8828 89.4276
rtibia 210.193
rfoot 155.217 107.287
rtoes 29.0731
lfemur -48.8525 69.7181 43.8211
ltibia 151.246
lfoot -32.4026 -28.9857
ltoes 2.01679
127
root 11.9395 5.45242 -0.85239 -710.072 -68.8617 -72.6047
lowerback 72.2457 5.49728 0.201544
upperback 14.7473 -0.190146 -6.84263
thorax -4.60425 -1.67471 -7.69669
lowerneck 3.96947 1.81811 -12.5234
upperneck 10.1818 1.67856 4.13866
head 2.49429 0.367902 3.62923
rclavicle -3.18055e-014 -1.59028e-014
rhumerus -27.2024 11.5909 -90.4678
rradius 25.4642
rwrist 22.3629
rhand -9.71149 -347.288
rfingers 7.12502
rthumb 16.2615 -376.627
lclavicle -3.18055e-014 -1.59028e-014
lhumerus -412.301 52.3486 -341.076
lradius 17.5626
lwrist -50.1361
lhand -67.9356 313.647
lfingers 7.12502
lthumb -39.6686 338.972
rfemur 183.315 21.5835 89.9592
rtibia 210.333
rfoot 153.167 107.336
rtoes 29.1655
lfemur -49.4363 69.9124 42.3272
ltibia 151.147
lfoot -30.5806 -26.7969
ltoes 4.33811
128
root 11.9468 5.43125 -0.839131 -708.916 -68.4024 -74.4311
lowerback 71.6917 5.39937 0.279972
upperback 14.8859 -0.154002 -6.65534
thorax -4.47604 -1.6831 -7.51317
lowerneck 3.82897 1.88777 -12.8171
upperneck 10.2217 1.77988 4.18718
head 2.52472 0.406325 3.70641
rclavicle 3.81667e-014 9.22361e-014
rhumerus -27.7766 12.0841 -90.7499
rradius 25.5723
rwrist 22.101
rhand -9.956 -347.279
rfingers 7.12502
rthumb 16.026 -376.636
lclavicle 3.81667e-014 9.22361e-014
lhumerus -413.769 52.4648 -342.233
lradius 17.5682
lwrist -50.5819
lhand -68.8866 309.85
lfingers 7.12502
lthumb -40.5633 334.904
rfemur 183.057 21.457 91.0694
rtibia 210.519
rfoot 149.451 107.427
rtoes 29.2232
lfemur -52.4453 69.3665 38.055
ltibia 150.81
lfoot -29.0568 -24.2624
ltoes 5.74402
